<?xml version="1.0" encoding="UTF-8"?>
<svg id="Layer_1" xmlns="http://www.w3.org/2000/svg" xmlns:xlink="http://www.w3.org/1999/xlink" version="1.1" viewBox="0 0 1190.55 1000">
  <!-- Generator: Adobe Illustrator 30.2.1, SVG Export Plug-In . SVG Version: 2.1.1 Build 1)  -->
  <defs>
    <style>
      .st0, .st1, .st2, .st3, .st4, .st5, .st6, .st7, .st8, .st9, .st10, .st11, .st12, .st13, .st14, .st15, .st16, .st17, .st18, .st19, .st20, .st21, .st22, .st23, .st24, .st25, .st26, .st27, .st28 {
        fill: none;
      }

      .st29 {
        fill: #faf7f1;
      }

      .st30 {
        font-size: 7.14px;
        letter-spacing: .14em;
      }

      .st30, .st31, .st32, .st33, .st34, .st35, .st36, .st37, .st38, .st39, .st40, .st41, .st42, .st43, .st44, .st45, .st46, .st47, .st48, .st49, .st50, .st51, .st52, .st53, .st54, .st55, .st56, .st57, .st58, .st59, .st60, .st61, .st62, .st63, .st64, .st65, .st66, .st67, .st68, .st69 {
        isolation: isolate;
      }

      .st30, .st31, .st32, .st36, .st39, .st41, .st42, .st49, .st51, .st54, .st56, .st63, .st67, .st69 {
        fill: #fff;
      }

      .st30, .st33, .st36, .st45, .st47, .st48, .st51, .st60, .st67 {
        font-family: Helvetica, Helvetica;
      }

      .st70 {
        fill: #fdeb98;
      }

      .st1 {
        stroke-dasharray: 96.13 185.86;
      }

      .st1, .st2, .st3, .st4, .st5, .st6, .st7, .st8, .st9, .st10, .st11, .st12, .st13, .st14, .st16, .st17, .st18, .st19, .st20, .st21, .st22, .st23, .st24, .st25, .st26, .st28 {
        stroke-linejoin: round;
      }

      .st1, .st3, .st4, .st6, .st7, .st8, .st9, .st10, .st11, .st12, .st16, .st21, .st22, .st23, .st24, .st25, .st26, .st28 {
        stroke-width: 11.34px;
      }

      .st1, .st3, .st5, .st8, .st14, .st19, .st21, .st22, .st23, .st24, .st26, .st28 {
        stroke: #f8ca00;
      }

      .st31 {
        font-size: 13.87px;
      }

      .st31, .st32, .st39, .st41, .st42, .st46, .st49, .st54, .st56, .st61, .st63, .st64, .st69 {
        font-weight: 700;
      }

      .st31, .st32, .st39, .st41, .st42, .st46, .st49, .st54, .st56, .st61, .st63, .st69 {
        font-family: HelveticaNeue-Bold, 'Helvetica Neue';
      }

      .st2 {
        stroke-dasharray: 163.93 0;
      }

      .st2, .st4, .st6, .st7, .st9, .st10, .st11, .st12, .st20, .st25 {
        stroke: #fdeb98;
      }

      .st2, .st5, .st14, .st17, .st19, .st20 {
        stroke-width: 9.92px;
      }

      .st32 {
        font-size: 17.01px;
      }

      .st33 {
        font-size: 15px;
      }

      .st33, .st46, .st48, .st55, .st61, .st71, .st65, .st66 {
        fill: #252e43;
      }

      .st34 {
        letter-spacing: .26em;
      }

      .st34, .st35, .st37, .st38, .st40, .st43, .st44, .st45, .st52, .st53, .st57, .st58, .st59, .st60, .st64 {
        fill: #5d7083;
      }

      .st34, .st35, .st37, .st38, .st40, .st43, .st44, .st52, .st53, .st57, .st58, .st59 {
        font-family: HelveticaNeue, 'Helvetica Neue';
        font-size: 13.5px;
      }

      .st35 {
        letter-spacing: .8em;
      }

      .st36 {
        letter-spacing: .13em;
      }

      .st36, .st47 {
        font-size: 6.12px;
      }

      .st37 {
        letter-spacing: .58em;
      }

      .st38 {
        letter-spacing: .5em;
      }

      .st39 {
        font-size: 12.24px;
      }

      .st40 {
        letter-spacing: .48em;
      }

      .st41 {
        font-size: 13.26px;
      }

      .st3 {
        stroke-dasharray: 83.16 153.84;
      }

      .st42 {
        font-size: 8.16px;
      }

      .st43 {
        letter-spacing: .13em;
      }

      .st44 {
        letter-spacing: .14em;
      }

      .st72 {
        fill: #607abb;
      }

      .st4 {
        stroke-dasharray: 261.38 0;
      }

      .st73 {
        fill: #f8ca00;
      }

      .st5 {
        stroke-dasharray: 54.64 109.29;
      }

      .st6 {
        stroke-dasharray: 269.17 12.82;
      }

      .st45 {
        font-size: 11px;
      }

      .st46, .st48 {
        font-size: 13px;
      }

      .st7 {
        stroke-dasharray: 238.57 0;
      }

      .st47 {
        fill: #4f9ebf;
        letter-spacing: .29em;
      }

      .st49 {
        font-size: 8.57px;
      }

      .st8 {
        stroke-dasharray: 55.19 155.54;
      }

      .st74 {
        clip-path: url(#clippath-1);
      }

      .st9 {
        stroke-dasharray: 175.44 46.17;
      }

      .st10 {
        stroke-dasharray: 115.37 187.94;
      }

      .st11 {
        stroke-dasharray: 237 0;
      }

      .st12 {
        stroke-dasharray: 180.63 30.11;
      }

      .st13 {
        stroke: #e5dccd;
      }

      .st13, .st18 {
        stroke-width: 1.42px;
      }

      .st51 {
        font-size: 6.53px;
        letter-spacing: .16em;
      }

      .st14 {
        stroke-dasharray: 138.34 17.29;
      }

      .st75 {
        fill: #a8bacd;
      }

      .st53 {
        letter-spacing: -.02em;
      }

      .st54 {
        font-size: 15.3px;
      }

      .st55 {
        font-family: Georgia, Georgia;
      }

      .st55, .st68 {
        font-size: 63.27px;
        letter-spacing: -.02em;
      }

      .st15 {
        stroke-miterlimit: 11.34;
      }

      .st15, .st27 {
        stroke: #6079bb;
        stroke-width: 1.3px;
      }

      .st16, .st17 {
        stroke: #e8e1d1;
      }

      .st18 {
        stroke: #bab09e;
        stroke-dasharray: 5.67 4.25;
      }

      .st19 {
        stroke-dasharray: 116.61 64.78;
      }

      .st56 {
        font-size: 11.22px;
      }

      .st57 {
        letter-spacing: .08em;
      }

      .st76 {
        opacity: .6;
      }

      .st77 {
        opacity: .55;
      }

      .st78 {
        opacity: .2;
      }

      .st20 {
        stroke-dasharray: 181.4 0;
      }

      .st21 {
        stroke-dasharray: 107.42 153.96;
      }

      .st58 {
        letter-spacing: .11em;
      }

      .st59 {
        letter-spacing: .05em;
      }

      .st60, .st62, .st64 {
        font-size: 8.5px;
      }

      .st61 {
        font-size: 14.5px;
      }

      .st62 {
        fill: #919faf;
        font-family: Helvetica-Light, Helvetica;
        font-weight: 300;
      }

      .st63 {
        font-size: 9.18px;
      }

      .st64 {
        font-family: Helvetica-Bold, Helvetica;
      }

      .st22 {
        stroke-dasharray: 96.95 124.65;
      }

      .st23 {
        stroke-dasharray: 119.29 119.29;
      }

      .st65 {
        font-size: 11.83px;
      }

      .st65, .st66 {
        font-family: HelveticaNeue-Medium, 'Helvetica Neue';
        font-weight: 500;
      }

      .st79 {
        fill: #e8e1d1;
      }

      .st66, .st69 {
        font-size: 10.61px;
      }

      .st80, .st68 {
        fill: #4f6984;
      }

      .st24 {
        stroke-dasharray: 100.63 202.68;
        stroke-dashoffset: 75.69px;
      }

      .st81 {
        fill: #1d3049;
      }

      .st67 {
        font-size: 5.71px;
        letter-spacing: .14em;
      }

      .st25 {
        stroke-dasharray: 255.6 0;
      }

      .st26 {
        stroke-dasharray: 122.24 133.36;
      }

      .st27 {
        stroke-miterlimit: 10;
      }

      .st28 {
        stroke-dasharray: 130.46 80.28;
      }

      .st82 {
        clip-path: url(#clippath);
      }

      .st68 {
        font-family: Georgia-Italic, Georgia;
        font-style: italic;
      }
    </style>
    <clipPath id="clippath">
      <rect class="st0" y="28.07" width="1190.55" height="7"/>
    </clipPath>
    <clipPath id="clippath-1">
      <rect class="st0" y="0" width="1190.55" height="37.86"/>
    </clipPath>
  </defs>
  <g id="Background">
    <g id="background">
      <g>
        <rect class="st29" x=".4" y="0" width="1189.64" height="1683.78"/>
        <g id="Top_border">
          <g class="st82">
            <rect class="st71" x=".4" y="28.27" width="1209.46" height="4.76"/>
          </g>
          <g class="st74">
            <rect class="st73" x=".4" y="0" width="1209.46" height="28.95"/>
          </g>
        </g>
      </g>
    </g>
  </g>
  <g id="Suburb_sections" class="st78">
    <g class="st76">
      <path class="st15" d="M480.73,688.29c-16.57.6-35.56-.38-52.14.22-4.23.15-8.58.29-12.56-1.14-4.85-1.74-8.61-5.62-11.7-9.74-12.11-16.14-16.07-36.9-18.07-56.98-5.69-56.98,1.75-115.23,21.57-168.96,1.76-4.76,3.72-9.65,7.42-13.12,4.19-3.93,10.03-5.49,15.63-6.78,32.4-7.43,65.84-10.28,99.03-8.44,7.64.43,15.48,1.15,22.35,4.54,15.29,7.54,21.64,25.88,24.35,42.71,2.71,16.83,3.57,34.85,13.2,48.91,12.26,17.91,31.71,35.19,52.45,41.58,56.75,17.46,122.18,39.41,171.71,72.15"/>
      <path class="st27" d="M745.69,356.7c-26.62-9.83-57.12-16.78-85-25.58-9.18-2.9-18.41-5.96-26.68-10.9-16.6-9.91-27.91-26.44-39.63-41.81-1.39-1.83-2.92-3.74-5.09-4.51-1.97-.7-4.14-.34-6.19.03-10.37,1.86-22.07,4.63-27.22,13.83-2.4,4.28-2.93,9.34-3.12,14.24-.82,21.06,3.75,41.92,5.89,62.89,2.01,19.71-64.48,40.56-71.39,59.2"/>
      <path class="st27" d="M528.84,393.34c24.49,7.17,72.12,42.88,95.03,54.3,26.58,13.25,60.58,12.86,81.36,34.08-6.04,10.34-9.44,23.39-13.94,34.49-4.07,10.04-7.53,20.41-13.03,29.75s-13.41,17.75-23.64,21.34"/>
      <path class="st27" d="M704.85,482.07c3.54-2.56,2.18-8.73,5.5-10.51"/>
      <path class="st27" d="M826.13,309.6c15.26,2.03,31.52,5.25,46.02,11.96s21.09,23.92,35.81,30.15c8.22,3.48,21.48,10.34,28.74,15.54,14.22,10.19,24.63,16.13,41.09,22.05,5.14,1.85,10.67,2.25,16.12,2.63,23.95,1.67,40.39,4.88,65.4,4.15,10.19-6.81,7.01-22.61,10.07-33.89"/>
      <path class="st27" d="M939.94,371.28c-18.07,21.66-35.07,44.22-50.89,67.58-3.16,4.67-6.39,9.7-6.52,15.34"/>
      <path class="st27" d="M1059.32,408.39c-7.02,18.93-15.07,37.14-33.22,56.86-3.95,4.29-5.48,6.35-8.96,11.03-2.5,3.35-9.98,7.39-13.12,10.14"/>
      <path class="st27" d="M1049.23,396.24c27.26,30.05,42.41,70.58,67.14,103.21,1.45,1.92,1.82,5.13,2.2,7.51.73,4.56.35,8.16-2.59,11.72-8.37,10.14-20.58,16.53-33.24,20.08-12.66,3.54-25.89,4.46-39.01,5.32-7.5.49-15.07.96-22.52-.07"/>
      <path class="st27" d="M1107.81,526.58c.49,8.9,6.83,17.46,13.94,22.83,7.11,5.38,15.72,8.38,24.35,10.63,13.5,3.52,29.71,4.91,42.43-.8"/>
      <path class="st27" d="M1115.75,327.33c19.45.26,40.24-3.38,58.67,2.94,4.87,1.67,9.73,3.92,14.88,3.81"/>
      <path class="st27" d="M790.42,705.95c38.92,8.24,83.72,19.91,123.37,23.3,30.17,2.58,88.59,3.89,124.39-2.92,9.58-1.82,81.76-.65,85.26-9.75,3.59-9.32-87.13-37.81-93.84-45.21-6.71-7.4-15.42-12.71-22.51-19.74-20.52-20.35-24.92-51.96-41.58-75.57"/>
      <path class="st27" d="M1138.6,557.35c1.95,11.78-3.31,23.74-11.32,33.64-8.01,9.9-18.65,18.12-28.88,26.53-13.67,11.23-26.76,22.93-39.23,35.06-8.21,7.99-17.14,16.67-29.58,18.8"/>
    </g>
  </g>
  <g id="River">
    <g id="River1">
      <g>
        <g class="st77">
          <g>
            <path class="st72" d="M533.3,751.93"/>
            <g>
              <path class="st72" d="M840.79,565.28c46.55-17.9,212.34-7.25,123.95-74.8-73.86-41.71-311.66,81.9-246.1-83.47,25.44-64.16,109.51-174.29,187.55-159.33,7.14,12.99,3.43,28.6-12.41,27.62-58.35-3.63-190.83,155.85-137.02,191.73,32.52,21.69,78.09-10.25,117.06-13.11,171.02-12.53,223.92,136.21,17.67,127.09-27.1-.3-42.43,19.01-56.9,38.59-7.79,5.65-10.59-.78-15.99-6.36-22.65-15.03,1.64-28.81,20.4-46.45"/>
              <path class="st72" d="M524.23,885.88c-6.21,2.61-13.02.84-19.92,1.28-5.16-.29-14.8,1.6-14.51-5.8-1.77-79.24-8.98-154.37-9.85-223.09.91-41.65,22.59-74.52,65.36-81.14,90.73-14.04,147.44,99.33,234.78,100.73,52.97.56,25.95-73.63,30.17-77.33,6.67-6.67,12.86-8.98,16.21-.85,7.13,15.35,25.87-2.63,22.11,2.43-7.5,10.08-3.14,20.91-1.24,27.95,4.91,22.02,8.28,43.72-10.15,59.2-10.06,9.18-24.09,14.28-37.75,16.31-51.58,8.17-97.18-16.43-138.14-45.01-34.86-21.59-95.93-84.37-131.57-41.23-15.04,20.99-10.17,50.35-11.17,74.79-.55,45.3,5.97,92.85,7.21,139.82-.36,10.78,6.07,46.61-1.47,51.91l-.07.04h0Z"/>
              <path class="st72" d="M879.55,292.19c-.07.24-.15.48-.57.51-.04-.31.26-.41.57-.51"/>
              <g>
                <path class="st72" d="M950.51,305.94c-19.14-11.04-33.85-25.78-56.73-30.63-2.36-9.27-4.12-18.55-5.94-28.32,29.8-3.1,52.18,15.51,76.11,28.86,4.72,2.78,8.96,6.01,13.55,9.66-8.64,7.71-17.09,14.65-26.99,20.43h0Z"/>
                <path class="st72" d="M1097.55,169.54c29.24,43.84-32.43,28.95,1.79,96.02,13.96,30.42,34.21,75.04-8.93,92.19-9-7.02-11.86-27.79-23.39-23.65,44.61-21.44-63.26-143.78,30.53-164.56h0Z"/>
                <path class="st72" d="M1090.4,357.75c-54.71,20.97-99.11-22.04-139.89-51.81,8.59-7.53,18.89-12.56,26.99-20.43,20.1,14.54,41.51,29.47,62.3,43.01,28.28,20.46,46.58-21.59,50.6,29.23h0Z"/>
              </g>
            </g>
          </g>
        </g>
        <g class="st50">
          <g class="st50">
            <g class="st50">
              <g class="st50">
                <text class="st47" transform="translate(950.52 255.01) rotate(31.92)"><tspan x="0" y="0">BRISBANE RIVER</tspan></text>
              </g>
            </g>
          </g>
        </g>
      </g>
    </g>
  </g>
  <g id="Footer">
    <g id="Source" class="st50">
      <g class="st50">
        <g class="st50">
          <g class="st50">
            <text class="st62" transform="translate(550.17 975.48)"><tspan x="0" y="0">Source: Brisbane City Council Open Data. Bus Stop locations dataset (brisbane-bus-stops); Bus Stop Locations Metadata 2025 v2. Accessed 5 March 2026.</tspan></text>
          </g>
        </g>
      </g>
    </g>
    <g id="Name" class="st50">
      <g class="st50">
        <g class="st50">
          <g class="st50">
            <text class="st62" transform="translate(44.38 975.28)"><tspan x="0" y="0">JOLI LUI</tspan></text>
          </g>
        </g>
      </g>
    </g>
    <line id="Line2" class="st13" x1="44.38" y1="956.44" x2="1146.06" y2="956.37"/>
  </g>
  <g id="Accessibility_circles">
    <g id="Circles">
      <g>
        <g id="bubble-indooroopilly">
          <circle class="st16" cx="528.84" cy="506.66" r="44.88"/>
          <circle class="st6" cx="528.84" cy="506.66" r="44.88"/>
          <circle class="st1" cx="528.84" cy="506.66" r="44.88"/>
          <circle class="st80" cx="528.86" cy="506.7" r="36.72" transform="translate(-182.3 681.88) rotate(-57.61)"/>
          <g class="st50">
            <g class="st50">
              <g class="st50">
                <g class="st50">
                  <text class="st54" transform="translate(520.34 502.18)"><tspan x="0" y="0">88</tspan></text>
                </g>
              </g>
            </g>
          </g>
          <g class="st50">
            <g class="st50">
              <g class="st50">
                <g class="st50">
                  <text class="st30" transform="translate(514.25 515.84)"><tspan x="0" y="0">STOPS</tspan></text>
                </g>
              </g>
            </g>
          </g>
        </g>
        <g class="st50">
          <g class="st50">
            <g class="st50">
              <g class="st50">
                <text class="st65" transform="translate(493.37 570.71)"><tspan x="0" y="0">Indooroopilly</tspan></text>
              </g>
            </g>
          </g>
        </g>
      </g>
      <g>
        <g id="bubble-taringa">
          <circle class="st16" cx="642.47" cy="506.85" r="41.6"/>
          <circle class="st4" cx="642.47" cy="506.85" r="41.6"/>
          <circle class="st21" cx="642.47" cy="506.85" r="41.6"/>
          <circle class="st75" cx="642.47" cy="506.85" r="33.44"/>
          <g class="st50">
            <g class="st50">
              <g class="st50">
                <g class="st50">
                  <text class="st31" transform="translate(634.76 502.77)"><tspan x="0" y="0">73</tspan></text>
                </g>
              </g>
            </g>
          </g>
          <g class="st50">
            <g class="st50">
              <g class="st50">
                <g class="st50">
                  <text class="st30" transform="translate(627.89 515.01)"><tspan x="0" y="0">STOPS</tspan></text>
                </g>
              </g>
            </g>
          </g>
        </g>
        <g class="st50">
          <g class="st50">
            <g class="st50">
              <g class="st50">
                <text class="st65" transform="translate(623.57 569.56)"><tspan x="0" y="0">Taringa</tspan></text>
              </g>
            </g>
          </g>
        </g>
      </g>
      <g>
        <g id="bubble-toowong">
          <circle class="st16" cx="651.28" cy="393.34" r="40.68"/>
          <circle class="st25" cx="651.28" cy="393.34" r="40.68"/>
          <circle class="st26" cx="651.28" cy="393.34" r="40.68"/>
          <circle class="st75" cx="651.28" cy="393.34" r="32.52"/>
          <g class="st50">
            <g class="st50">
              <g class="st50">
                <g class="st50">
                  <text class="st41" transform="translate(643.9 389.26)"><tspan x="0" y="0">69</tspan></text>
                </g>
              </g>
            </g>
          </g>
          <g class="st50">
            <g class="st50">
              <g class="st50">
                <g class="st50">
                  <text class="st30" transform="translate(636.69 401.5)"><tspan x="0" y="0">STOPS</tspan></text>
                </g>
              </g>
            </g>
          </g>
        </g>
        <g class="st50">
          <g class="st50">
            <g class="st50">
              <g class="st50">
                <text class="st65" transform="translate(626.4 451.66)"><tspan x="0" y="0">Toowong</tspan></text>
              </g>
            </g>
          </g>
        </g>
      </g>
      <g>
        <g id="bubble-st-lucia">
          <circle class="st16" cx="754.54" cy="559.24" r="35.27"/>
          <circle class="st9" cx="754.54" cy="559.24" r="35.27"/>
          <circle class="st22" cx="754.54" cy="559.24" r="35.27"/>
          <circle class="st80" cx="754.54" cy="559.24" r="27.11"/>
          <g class="st50">
            <g class="st50">
              <g class="st50">
                <g class="st50">
                  <text class="st56" transform="translate(748.3 555.57)"><tspan x="0" y="0">48</tspan></text>
                </g>
              </g>
            </g>
          </g>
          <g class="st50">
            <g class="st50">
              <g class="st50">
                <g class="st50">
                  <text class="st51" transform="translate(740.98 566.38)"><tspan x="0" y="0">STOPS</tspan></text>
                </g>
              </g>
            </g>
          </g>
        </g>
        <g class="st50">
          <g class="st50">
            <g class="st50">
              <g class="st50">
                <text class="st65" transform="translate(731.27 612.57)"><tspan x="0" y="0">St Lucia</tspan></text>
              </g>
            </g>
          </g>
        </g>
      </g>
      <g>
        <g id="bubble-west-end">
          <circle class="st16" cx="846.51" cy="396.97" r="37.72"/>
          <circle class="st11" cx="846.51" cy="396.97" r="37.72"/>
          <circle class="st3" cx="846.51" cy="396.97" r="37.72"/>
          <circle class="st80" cx="846.51" cy="396.97" r="29.56"/>
          <g class="st50">
            <g class="st50">
              <g class="st50">
                <g class="st50">
                  <text class="st39" transform="translate(839.7 393.3)"><tspan x="0" y="0">57</tspan></text>
                </g>
              </g>
            </g>
          </g>
          <g class="st50">
            <g class="st50">
              <g class="st50">
                <g class="st50">
                  <text class="st51" transform="translate(832.95 404.73)"><tspan x="0" y="0">STOPS</tspan></text>
                </g>
              </g>
            </g>
          </g>
        </g>
        <g class="st50">
          <g class="st50">
            <g class="st50">
              <g class="st50">
                <text class="st65" transform="translate(820.32 453.02)"><tspan x="0" y="0">West End</tspan></text>
              </g>
            </g>
          </g>
        </g>
      </g>
      <g>
        <g id="bubble-south-brisbane">
          <circle class="st16" cx="927.03" cy="326.49" r="33.54"/>
          <circle class="st12" cx="927.03" cy="326.49" r="33.54"/>
          <circle class="st8" cx="927.03" cy="326.49" r="33.54"/>
          <circle class="st75" cx="927.03" cy="326.49" r="25.38"/>
          <g class="st50">
            <g class="st50">
              <g class="st50">
                <g class="st50">
                  <text class="st69" transform="translate(921.13 323.43)"><tspan x="0" y="0">42</tspan></text>
                </g>
              </g>
            </g>
          </g>
          <g class="st50">
            <g class="st50">
              <g class="st50">
                <g class="st50">
                  <text class="st51" transform="translate(913.47 333.63)"><tspan x="0" y="0">STOPS</tspan></text>
                </g>
              </g>
            </g>
          </g>
        </g>
        <g class="st50">
          <g class="st50">
            <g class="st50">
              <g class="st50">
                <text class="st66" transform="translate(889.3 377.23)"><tspan x="0" y="0">South Brisbane</tspan></text>
              </g>
            </g>
          </g>
        </g>
      </g>
      <g>
        <g id="bubble-highgate-hill">
          <circle class="st17" cx="973.5" cy="416.96" r="26.09"/>
          <circle class="st2" cx="973.5" cy="416.96" r="26.09"/>
          <circle class="st5" cx="973.5" cy="416.96" r="26.09"/>
          <circle class="st75" cx="973.5" cy="416.96" r="17.93"/>
          <g class="st50">
            <g class="st50">
              <g class="st50">
                <g class="st50">
                  <text class="st49" transform="translate(968.73 414.51)"><tspan x="0" y="0">21</tspan></text>
                </g>
              </g>
            </g>
          </g>
          <g class="st50">
            <g class="st50">
              <g class="st50">
                <g class="st50">
                  <text class="st67" transform="translate(961.83 423.08)"><tspan x="0" y="0">STOPS</tspan></text>
                </g>
              </g>
            </g>
          </g>
        </g>
        <g class="st50">
          <g class="st50">
            <g class="st50">
              <g class="st50">
                <text class="st66" transform="translate(943.25 457.98)"><tspan x="0" y="0">Highgate Hill</tspan></text>
              </g>
            </g>
          </g>
        </g>
      </g>
      <g>
        <g id="bubble-dutton-park">
          <circle class="st17" cx="1059.08" cy="487.65" r="24.77"/>
          <circle class="st14" cx="1059.08" cy="487.65" r="24.77"/>
          <circle class="st80" cx="1059.08" cy="487.65" r="16.61"/>
          <g class="st50">
            <g class="st50">
              <g class="st50">
                <g class="st50">
                  <text class="st42" transform="translate(1054.54 485.61)"><tspan x="0" y="0">18</tspan></text>
                </g>
              </g>
            </g>
          </g>
          <g class="st50">
            <g class="st50">
              <g class="st50">
                <g class="st50">
                  <text class="st67" transform="translate(1047.41 493.77)"><tspan x="0" y="0">STOPS</tspan></text>
                </g>
              </g>
            </g>
          </g>
        </g>
        <g class="st50">
          <g class="st50">
            <g class="st50">
              <g class="st50">
                <text class="st66" transform="translate(1029.8 527.63)"><tspan x="0" y="0">Dutton Park</tspan></text>
              </g>
            </g>
          </g>
        </g>
      </g>
      <g>
        <g id="bubble-yeronga">
          <circle class="st16" cx="914.56" cy="636.62" r="37.97"/>
          <circle class="st7" cx="914.56" cy="636.62" r="37.97"/>
          <circle class="st23" cx="914.56" cy="636.62" r="37.97"/>
          <circle class="st80" cx="914.56" cy="636.62" r="29.8"/>
          <g class="st50">
            <g class="st50">
              <g class="st50">
                <g class="st50">
                  <text class="st39" transform="translate(907.75 632.95)"><tspan x="0" y="0">58</tspan></text>
                </g>
              </g>
            </g>
          </g>
          <g class="st50">
            <g class="st50">
              <g class="st50">
                <g class="st50">
                  <text class="st51" transform="translate(901 644.37)"><tspan x="0" y="0">STOPS</tspan></text>
                </g>
              </g>
            </g>
          </g>
        </g>
        <g class="st50">
          <g class="st50">
            <g class="st50">
              <g class="st50">
                <text class="st65" transform="translate(892.3 692.78)"><tspan x="0" y="0">Yeronga</tspan></text>
              </g>
            </g>
          </g>
        </g>
      </g>
      <g>
        <g id="bubble-fairfield">
          <circle class="st17" cx="1038.17" cy="592.46" r="28.87"/>
          <circle class="st20" cx="1038.17" cy="592.46" r="28.87"/>
          <circle class="st19" cx="1038.17" cy="592.46" r="28.87"/>
          <circle class="st71" cx="1038.27" cy="592.57" r="20.71" transform="translate(-58.81 1067.5) rotate(-53.12)"/>
          <g class="st50">
            <g class="st50">
              <g class="st50">
                <g class="st50">
                  <text class="st63" transform="translate(1033.06 589.4)"><tspan x="0" y="0">28</tspan></text>
                </g>
              </g>
            </g>
          </g>
          <g class="st50">
            <g class="st50">
              <g class="st50">
                <g class="st50">
                  <text class="st36" transform="translate(1025.81 598.98)"><tspan x="0" y="0">STOPS</tspan></text>
                </g>
              </g>
            </g>
          </g>
        </g>
        <g class="st50">
          <g class="st50">
            <g class="st50">
              <g class="st50">
                <text class="st65" transform="translate(1018.24 640.75)"><tspan x="0" y="0">Fairfield</tspan></text>
              </g>
            </g>
          </g>
        </g>
      </g>
      <g>
        <g id="bubble-woolloongabba">
          <circle class="st16" cx="1104.13" cy="404.87" r="33.54"/>
          <circle class="st12" cx="1104.13" cy="404.87" r="33.54"/>
          <circle class="st28" cx="1104.13" cy="404.87" r="33.54"/>
          <circle class="st71" cx="1104.13" cy="404.87" r="25.38"/>
          <g class="st50">
            <g class="st50">
              <g class="st50">
                <g class="st50">
                  <text class="st69" transform="translate(1098.23 401.81)"><tspan x="0" y="0">42</tspan></text>
                </g>
              </g>
            </g>
          </g>
          <g class="st50">
            <g class="st50">
              <g class="st50">
                <g class="st50">
                  <text class="st51" transform="translate(1090.57 412.01)"><tspan x="0" y="0">STOPS</tspan></text>
                </g>
              </g>
            </g>
          </g>
        </g>
        <g class="st50">
          <g class="st50">
            <g class="st50">
              <g class="st50">
                <text class="st66" transform="translate(1067.32 454.84)"><tspan x="0" y="0">Woolloongabba</tspan></text>
              </g>
            </g>
          </g>
        </g>
      </g>
    </g>
  </g>
  <g id="How_to_read_section">
    <g id="Legends">
      <g class="st50">
        <g class="st50">
          <g class="st50">
            <text class="st61" transform="translate(102.43 504.51)"><tspan x="0" y="0">How to Read the Visualisation</tspan></text>
          </g>
        </g>
      </g>
      <g class="st50">
        <g class="st50">
          <g class="st50">
            <text class="st45" transform="translate(73.96 536.11)"><tspan x="0" y="0">Accessibility Band</tspan></text>
          </g>
        </g>
      </g>
      <g class="st50">
        <g class="st50">
          <g class="st50">
            <text class="st45" transform="translate(112.25 550.61)"><tspan x="0" y="0">(fill shade)</tspan></text>
          </g>
        </g>
      </g>
      <g class="st50">
        <g class="st50">
          <g class="st50">
            <text class="st45" transform="translate(186.88 533.51)"><tspan x="0" y="0">Bus Stop Quality Mix (%)</tspan></text>
          </g>
        </g>
      </g>
      <circle class="st16" cx="198.93" cy="604.51" r="37"/>
      <circle class="st10" cx="198.93" cy="604.51" r="37"/>
      <circle class="st24" cx="198.93" cy="604.51" r="37"/>
      <circle class="st80" cx="198.93" cy="604.51" r="25"/>
      <g class="st50">
        <g class="st50">
          <g class="st50">
            <text class="st32" transform="translate(192.63 611.61)"><tspan x="0" y="0">N</tspan></text>
          </g>
        </g>
      </g>
      <line class="st18" x1="208.93" y1="621.51" x2="235.93" y2="653.01"/>
      <g class="st50">
        <g class="st50">
          <g class="st50">
            <text class="st45" transform="translate(229.62 666.51)"><tspan x="0" y="0">N = Stop Count</tspan></text>
          </g>
        </g>
      </g>
      <g class="st50">
        <g class="st50">
          <g class="st50">
            <text class="st45" transform="translate(249 680.01)"><tspan x="0" y="0">(circle size)</tspan></text>
          </g>
        </g>
      </g>
      <g class="st50">
        <g class="st50">
          <g class="st50">
            <text class="st46" transform="translate(191.46 720.51)"><tspan x="0" y="0">Accessibility Score</tspan></text>
          </g>
        </g>
      </g>
      <rect class="st81" x="135.93" y="733.94" width="22" height="22" rx="4" ry="4"/>
      <g class="st50">
        <g class="st50">
          <g class="st50">
            <text class="st48" transform="translate(222.42 747.4)"><tspan x="0" y="0">&gt;= 80% Higher</tspan></text>
          </g>
        </g>
      </g>
      <rect class="st80" x="135.93" y="761.43" width="22" height="22" rx="4" ry="4"/>
      <g class="st50">
        <g class="st50">
          <g class="st50">
            <text class="st48" transform="translate(205.8 774.89)"><tspan x="0" y="0">70-80% Moderate</tspan></text>
          </g>
        </g>
      </g>
      <rect class="st75" x="135.93" y="788.93" width="22" height="22" rx="4" ry="4"/>
      <g class="st50">
        <g class="st50">
          <g class="st50">
            <text class="st48" transform="translate(232.9 802.39)"><tspan x="0" y="0">&lt; 70% Lower</tspan></text>
          </g>
        </g>
      </g>
      <g class="st50">
        <g class="st50">
          <g class="st50">
            <text class="st46" transform="translate(205.78 849.58)"><tspan x="0" y="0">Bus Stop Quality</tspan></text>
          </g>
        </g>
      </g>
      <rect class="st73" x="135.93" y="863.02" width="22" height="22" rx="2.83" ry="2.83"/>
      <g class="st50">
        <g class="st50">
          <g class="st50">
            <text class="st48" transform="translate(199.32 876.47)"><tspan x="0" y="0">Quality (Types 1-2)</tspan></text>
          </g>
        </g>
      </g>
      <rect class="st70" x="135.93" y="890.51" width="22" height="22" rx="2.83" ry="2.83"/>
      <g class="st50">
        <g class="st50">
          <g class="st50">
            <text class="st48" transform="translate(207.99 903.96)"><tspan x="0" y="0">Basic (Types 3-5)</tspan></text>
          </g>
        </g>
      </g>
      <rect class="st79" x="135.93" y="918.01" width="22" height="22" rx="2.83" ry="2.83"/>
      <g class="st50">
        <g class="st50">
          <g class="st50">
            <text class="st48" transform="translate(254.94 931.46)"><tspan x="0" y="0">Unknown</tspan></text>
          </g>
        </g>
      </g>
      <line class="st18" x1="181.93" y1="585.51" x2="156.93" y2="556.11"/>
      <g class="st50">
        <g class="st50">
          <g class="st50">
            <text class="st45" transform="translate(247.45 548.84)"><tspan x="0" y="0">(arc colours)</tspan></text>
          </g>
        </g>
      </g>
      <line class="st18" x1="235.93" y1="576.51" x2="253.93" y2="558.51"/>
    </g>
  </g>
  <g id="Title_text">
    <g class="st50">
      <g class="st50">
        <g class="st50">
          <g class="st50">
            <text class="st55" transform="translate(45.65 116.96)"><tspan x="0" y="0">Are Bus Stops Around</tspan></text>
          </g>
        </g>
      </g>
    </g>
    <g class="st50">
      <g class="st50">
        <g class="st50">
          <g class="st50">
            <g class="st50">
              <text class="st68" transform="translate(45.65 182.98)"><tspan x="0" y="0">St Lucia</tspan></text>
            </g>
          </g>
        </g>
      </g>
      <g class="st50">
        <g class="st50">
          <g class="st50">
            <g class="st50">
              <text class="st55" transform="translate(280.63 182.98)"><tspan x="0" y="0" xml:space="preserve"> Accessible Enough?</tspan></text>
            </g>
          </g>
        </g>
      </g>
    </g>
    <rect class="st73" x="44.38" y="199.98" width="350" height="4.22"/>
    <line class="st13" x1="397.1" y1="203.11" x2="1146.06" y2="203.09"/>
    <g class="st50">
      <g class="st50">
        <g class="st50">
          <g class="st50">
            <text class="st33" transform="translate(45.39 229.78)"><tspan x="0" y="0">Across the 11-suburb area surrounding St Lucia, bus stops have an average accessibility score of about 73%. But is ‘mostly accessible’ accessible enough?</tspan></text>
          </g>
        </g>
      </g>
    </g>
  </g>
  <g id="Subtitle_text" class="st50">
    <text class="st52" transform="translate(45.39 257.44)"><tspan x="0" y="0">Centred</tspan></text>
    <text class="st44" transform="translate(93.89 257.44)"><tspan x="0" y="0"> </tspan></text>
    <text class="st52" transform="translate(99.56 257.44)"><tspan x="0" y="0">on</tspan></text>
    <text class="st44" transform="translate(114.82 257.44)"><tspan x="0" y="0"> </tspan></text>
    <text class="st52" transform="translate(120.49 257.44)"><tspan x="0" y="0">the</tspan></text>
    <text class="st44" transform="translate(139.5 257.44)"><tspan x="0" y="0"> </tspan></text>
    <text class="st52" transform="translate(145.17 257.44)"><tspan x="0" y="0">university</tspan></text>
    <text class="st44" transform="translate(202.42 257.44)"><tspan x="0" y="0"> </tspan></text>
    <text class="st52" transform="translate(208.09 257.44)"><tspan x="0" y="0">hub</tspan></text>
    <text class="st44" transform="translate(231.11 257.44)"><tspan x="0" y="0"> </tspan></text>
    <text class="st52" transform="translate(236.78 257.44)"><tspan x="0" y="0">of</tspan></text>
    <text class="st44" transform="translate(248.53 257.44)"><tspan x="0" y="0"> </tspan></text>
    <text class="st52" transform="translate(254.2 257.44)"><tspan x="0" y="0">St</tspan></text>
    <text class="st44" transform="translate(267.2 257.44)"><tspan x="0" y="0"> </tspan></text>
    <text class="st52" transform="translate(272.87 257.44)"><tspan x="0" y="0">Lucia, </tspan></text>
    <text class="st52" transform="translate(45.39 273.64)"><tspan x="0" y="0">this</tspan></text>
    <text class="st34" transform="translate(66.89 273.64)"><tspan x="0" y="0"> </tspan></text>
    <text class="st52" transform="translate(74.14 273.64)"><tspan x="0" y="0">visualisation</tspan></text>
    <text class="st34" transform="translate(147.89 273.64)"><tspan x="0" y="0"> </tspan></text>
    <text class="st52" transform="translate(155.13 273.64)"><tspan x="0" y="0">examines</tspan></text>
    <text class="st34" transform="translate(212.64 273.64)"><tspan x="0" y="0"> </tspan></text>
    <text class="st52" transform="translate(219.88 273.64)"><tspan x="0" y="0">the</tspan></text>
    <text class="st34" transform="translate(238.88 273.64)"><tspan x="0" y="0"> </tspan></text>
    <text class="st52" transform="translate(246.12 273.64)"><tspan x="0" y="0">bus</tspan></text>
    <text class="st34" transform="translate(268.39 273.64)"><tspan x="0" y="0"> </tspan></text>
    <text class="st52" transform="translate(275.63 273.64)"><tspan x="0" y="0">stops </tspan></text>
    <text class="st52" transform="translate(45.39 289.84)"><tspan x="0" y="0">that</tspan></text>
    <text class="st59" transform="translate(68.65 289.84)"><tspan x="0" y="0"> </tspan></text>
    <text class="st52" transform="translate(73.1 289.84)"><tspan x="0" y="0">support</tspan></text>
    <text class="st59" transform="translate(119.86 289.84)"><tspan x="0" y="0"> </tspan></text>
    <text class="st52" transform="translate(124.31 289.84)"><tspan x="0" y="0">a</tspan></text>
    <text class="st59" transform="translate(131.56 289.84)"><tspan x="0" y="0"> </tspan></text>
    <text class="st52" transform="translate(136 289.84)"><tspan x="0" y="0">daily</tspan></text>
    <text class="st59" transform="translate(164 289.84)"><tspan x="0" y="0"> </tspan></text>
    <text class="st52" transform="translate(168.45 289.84)"><tspan x="0" y="0">population</tspan></text>
    <text class="st59" transform="translate(232.47 289.84)"><tspan x="0" y="0"> </tspan></text>
    <text class="st52" transform="translate(236.91 289.84)"><tspan x="0" y="0">of</tspan></text>
    <text class="st59" transform="translate(248.66 289.84)"><tspan x="0" y="0"> </tspan></text>
    <text class="st52" transform="translate(253.11 289.84)"><tspan x="0" y="0">students, </tspan></text>
    <text class="st52" transform="translate(45.39 306.04)"><tspan x="0" y="0">staff,</tspan></text>
    <text class="st57" transform="translate(75.39 306.04)"><tspan x="0" y="0"> </tspan></text>
    <text class="st52" transform="translate(80.17 306.04)"><tspan x="0" y="0">visitors,</tspan></text>
    <text class="st57" transform="translate(126.67 306.04)"><tspan x="0" y="0"> </tspan></text>
    <text class="st52" transform="translate(131.46 306.04)"><tspan x="0" y="0">and</tspan></text>
    <text class="st57" transform="translate(154.22 306.04)"><tspan x="0" y="0"> </tspan></text>
    <text class="st52" transform="translate(159 306.04)"><tspan x="0" y="0">nearby</tspan></text>
    <text class="st57" transform="translate(200.26 306.04)"><tspan x="0" y="0"> </tspan></text>
    <text class="st52" transform="translate(205.04 306.04)"><tspan x="0" y="0">residents.</tspan></text>
    <text class="st57" transform="translate(264.05 306.04)"><tspan x="0" y="0"> </tspan></text>
    <text class="st52" transform="translate(268.84 306.04)"><tspan x="0" y="0">It</tspan></text>
    <text class="st57" transform="translate(276.59 306.04)"><tspan x="0" y="0"> </tspan></text>
    <text class="st52" transform="translate(281.37 306.04)"><tspan x="0" y="0">asks </tspan></text>
    <text class="st52" transform="translate(45.39 322.24)"><tspan x="0" y="0">how</tspan></text>
    <text class="st37" transform="translate(70.88 322.24)"><tspan x="0" y="0"> </tspan></text>
    <text class="st52" transform="translate(82.5 322.24)"><tspan x="0" y="0">accessible</tspan></text>
    <text class="st37" transform="translate(146.24 322.24)"><tspan x="0" y="0"> </tspan></text>
    <text class="st52" transform="translate(157.86 322.24)"><tspan x="0" y="0">the</tspan></text>
    <text class="st37" transform="translate(176.87 322.24)"><tspan x="0" y="0"> </tspan></text>
    <text class="st52" transform="translate(188.49 322.24)"><tspan x="0" y="0">surrounding</tspan></text>
    <text class="st37" transform="translate(260.75 322.24)"><tspan x="0" y="0"> </tspan></text>
    <text class="st52" transform="translate(272.37 322.24)"><tspan x="0" y="0">public </tspan></text>
    <text class="st52" transform="translate(81.38 338.44)"><tspan x="0" y="0">transport network is for everyday use. </tspan></text>
    <text class="st52" transform="translate(45.39 370.84)"><tspan x="0" y="0">Using</tspan></text>
    <text class="st43" transform="translate(80.14 370.84)"><tspan x="0" y="0"> </tspan></text>
    <text class="st52" transform="translate(85.67 370.84)"><tspan x="0" y="0">544</tspan></text>
    <text class="st43" transform="translate(108.19 370.84)"><tspan x="0" y="0"> </tspan></text>
    <text class="st52" transform="translate(113.72 370.84)"><tspan x="0" y="0">bus</tspan></text>
    <text class="st43" transform="translate(135.98 370.84)"><tspan x="0" y="0"> </tspan></text>
    <text class="st52" transform="translate(141.51 370.84)"><tspan x="0" y="0">stops</tspan></text>
    <text class="st43" transform="translate(175.01 370.84)"><tspan x="0" y="0"> </tspan></text>
    <text class="st52" transform="translate(180.54 370.84)"><tspan x="0" y="0">across</tspan></text>
    <text class="st43" transform="translate(220.79 370.84)"><tspan x="0" y="0"> </tspan></text>
    <text class="st52" transform="translate(226.32 370.84)"><tspan x="0" y="0">an</tspan></text>
    <text class="st43" transform="translate(241.07 370.84)"><tspan x="0" y="0"> </tspan></text>
    <text class="st52" transform="translate(246.6 370.84)"><tspan x="0" y="0">11-suburb </tspan></text>
    <text class="st52" transform="translate(45.39 387.04)"><tspan x="0" y="0">study</tspan></text>
    <text class="st58" transform="translate(78.65 387.04)"><tspan x="0" y="0"> </tspan></text>
    <text class="st52" transform="translate(83.82 387.04)"><tspan x="0" y="0">area</tspan></text>
    <text class="st58" transform="translate(110.07 387.04)"><tspan x="0" y="0"> </tspan></text>
    <text class="st52" transform="translate(115.24 387.04)"><tspan x="0" y="0">centred</tspan></text>
    <text class="st58" transform="translate(161.24 387.04)"><tspan x="0" y="0"> </tspan></text>
    <text class="st52" transform="translate(166.42 387.04)"><tspan x="0" y="0">on</tspan></text>
    <text class="st58" transform="translate(181.67 387.04)"><tspan x="0" y="0"> </tspan></text>
    <text class="st52" transform="translate(186.84 387.04)"><tspan x="0" y="0">St</tspan></text>
    <text class="st58" transform="translate(199.84 387.04)"><tspan x="0" y="0"> </tspan></text>
    <text class="st52" transform="translate(205.02 387.04)"><tspan x="0" y="0">Lucia,</tspan></text>
    <text class="st58" transform="translate(241.28 387.04)"><tspan x="0" y="0"> </tspan></text>
    <text class="st52" transform="translate(246.45 387.04)"><tspan x="0" y="0">the</tspan></text>
    <text class="st58" transform="translate(265.46 387.04)"><tspan x="0" y="0"> </tspan></text>
    <text class="st52" transform="translate(270.63 387.04)"><tspan x="0" y="0">poster </tspan></text>
    <text class="st52" transform="translate(45.39 403.24)"><tspan x="0" y="0">compares</tspan></text>
    <text class="st35" transform="translate(105.65 403.24)"><tspan x="0" y="0"> </tspan></text>
    <text class="st52" transform="translate(120.23 403.24)"><tspan x="0" y="0">stop</tspan></text>
    <text class="st35" transform="translate(146.99 403.24)"><tspan x="0" y="0"> </tspan></text>
    <text class="st52" transform="translate(161.57 403.24)"><tspan x="0" y="0">coverage,</tspan></text>
    <text class="st35" transform="translate(221.06 403.24)"><tspan x="0" y="0"> </tspan></text>
    <text class="st52" transform="translate(235.64 403.24)"><tspan x="0" y="0">accessibility </tspan></text>
    <text class="st52" transform="translate(45.39 419.44)"><tspan x="0" y="0">score,</tspan></text>
    <text class="st40" transform="translate(82.64 419.44)"><tspan x="0" y="0"> </tspan></text>
    <text class="st52" transform="translate(92.83 419.44)"><tspan x="0" y="0">and</tspan></text>
    <text class="st40" transform="translate(115.59 419.44)"><tspan x="0" y="0"> </tspan></text>
    <text class="st52" transform="translate(125.78 419.44)"><tspan x="0" y="0">stop</tspan></text>
    <text class="st40" transform="translate(152.54 419.44)"><tspan x="0" y="0"> </tspan></text>
    <text class="st52" transform="translate(162.74 419.44)"><tspan x="0" y="0">type.</tspan></text>
    <text class="st40" transform="translate(192.74 419.44)"><tspan x="0" y="0"> </tspan></text>
    <text class="st52" transform="translate(202.94 419.44)"><tspan x="0" y="0">The</tspan></text>
    <text class="st40" transform="translate(225.44 419.44)"><tspan x="0" y="0"> </tspan></text>
    <text class="st52" transform="translate(235.64 419.44)"><tspan x="0" y="0">accessibility </tspan></text>
    <text class="st52" transform="translate(45.39 435.64)"><tspan x="0" y="0">score</tspan></text>
    <text class="st38" transform="translate(78.88 435.64)"><tspan x="0" y="0"> </tspan></text>
    <text class="st52" transform="translate(89.38 435.64)"><tspan x="0" y="0">is</tspan></text>
    <text class="st38" transform="translate(99.13 435.64)"><tspan x="0" y="0"> </tspan></text>
    <text class="st52" transform="translate(109.63 435.64)"><tspan x="0" y="0">calculated</tspan></text>
    <text class="st38" transform="translate(171.63 435.64)"><tspan x="0" y="0"> </tspan></text>
    <text class="st52" transform="translate(182.13 435.64)"><tspan x="0" y="0">from</tspan></text>
    <text class="st38" transform="translate(209.89 435.64)"><tspan x="0" y="0"> </tspan></text>
    <text class="st52" transform="translate(220.39 435.64)"><tspan x="0" y="0">four</tspan></text>
    <text class="st38" transform="translate(244.13 435.64)"><tspan x="0" y="0"> </tspan></text>
    <text class="st52" transform="translate(254.63 435.64)"><tspan x="0" y="0">recorded </tspan></text>
    <text class="st52" transform="translate(45.39 451.84)"><tspan x="0" y="0">access</tspan></text>
    <text class="st53" transform="translate(87.89 451.84)"><tspan x="0" y="0"> </tspan></text>
    <text class="st52" transform="translate(91.43 451.84)"><tspan x="0" y="0">factors:</tspan></text>
    <text class="st53" transform="translate(136.93 451.84)"><tspan x="0" y="0"> </tspan></text>
    <text class="st52" transform="translate(140.47 451.84)"><tspan x="0" y="0">boarding</tspan></text>
    <text class="st53" transform="translate(194.23 451.84)"><tspan x="0" y="0"> </tspan></text>
    <text class="st52" transform="translate(197.78 451.84)"><tspan x="0" y="0">space,</tspan></text>
    <text class="st53" transform="translate(238.03 451.84)"><tspan x="0" y="0"> </tspan></text>
    <text class="st52" transform="translate(241.58 451.84)"><tspan x="0" y="0">road</tspan></text>
    <text class="st53" transform="translate(269.08 451.84)"><tspan x="0" y="0"> </tspan></text>
    <text class="st52" transform="translate(272.63 451.84)"><tspan x="0" y="0">slope, </tspan></text>
    <text class="st52" transform="translate(116.87 468.04)"><tspan x="0" y="0">sideways tilt, and tactile paving.</tspan></text>
  </g>
</svg>